<?xml version="1.0" encoding="utf-8"?>
<!-- Generator: Adobe Illustrator 18.0.0, SVG Export Plug-In . SVG Version: 6.00 Build 0)  -->
<!DOCTYPE svg PUBLIC "-//W3C//DTD SVG 1.1//EN" "http://www.w3.org/Graphics/SVG/1.1/DTD/svg11.dtd">
<svg version="1.1" id="Layer_1" xmlns="http://www.w3.org/2000/svg" xmlns:xlink="http://www.w3.org/1999/xlink" x="0px" y="0px"
	 viewBox="0 0 1400 980" enable-background="new 0 0 1400 980" xml:space="preserve">
<g>
	<g>
		<rect fill="#B3E4FA" width="1400" height="980"/>
	</g>
	<g>
		<g>
			<g>
				<rect x="116.2" fill="#FFFFFF" width="1" height="980"/>
			</g>
		</g>
		<g>
			<g>
				<rect x="232.8" fill="#FFFFFF" width="1" height="980"/>
			</g>
		</g>
		<g>
			<g>
				<rect x="349.5" fill="#FFFFFF" width="1" height="980"/>
			</g>
		</g>
		<g>
			<g>
				<rect x="466.2" fill="#FFFFFF" width="1" height="980"/>
			</g>
		</g>
		<g>
			<g>
				<rect x="582.8" fill="#FFFFFF" width="1" height="980"/>
			</g>
		</g>
		<g>
			<g>
				<rect x="699.5" fill="#FFFFFF" width="1" height="980"/>
			</g>
		</g>
		<g>
			<g>
				<rect x="816.2" fill="#FFFFFF" width="1" height="980"/>
			</g>
		</g>
		<g>
			<g>
				<rect x="932.8" fill="#FFFFFF" width="1" height="980"/>
			</g>
		</g>
		<g>
			<g>
				<rect x="1049.5" fill="#FFFFFF" width="1" height="980"/>
			</g>
		</g>
		<g>
			<g>
				<rect x="1166.2" fill="#FFFFFF" width="1" height="980"/>
			</g>
		</g>
		<g>
			<g>
				<rect x="1282.8" fill="#FFFFFF" width="1" height="980"/>
			</g>
		</g>
		<g>
			<g>
				<rect y="116.2" fill="#FFFFFF" width="1400" height="1"/>
			</g>
		</g>
		<g>
			<g>
				<rect y="232.8" fill="#FFFFFF" width="1400" height="1"/>
			</g>
		</g>
		<g>
			<g>
				<rect y="349.5" fill="#FFFFFF" width="1400" height="1"/>
			</g>
		</g>
		<g>
			<g>
				<rect y="466.2" fill="#FFFFFF" width="1400" height="1"/>
			</g>
		</g>
		<g>
			<g>
				<rect y="582.8" fill="#FFFFFF" width="1400" height="1"/>
			</g>
		</g>
		<g>
			<g>
				<rect y="699.5" fill="#FFFFFF" width="1400" height="1"/>
			</g>
		</g>
		<g>
			<g>
				<rect y="816.2" fill="#FFFFFF" width="1400" height="1"/>
			</g>
		</g>
		<g>
			<g>
				<rect y="932.8" fill="#FFFFFF" width="1400" height="1"/>
			</g>
		</g>
	</g>
	<g>
		<defs>
			<rect id="SVGID_1_" width="1400" height="980"/>
		</defs>
		<clipPath id="SVGID_2_">
			<use xlink:href="#SVGID_1_"  overflow="visible"/>
		</clipPath>
		<g clip-path="url(#SVGID_2_)">
			<g>
				<g>
					<g>
						<path fill="#FFFFFF" d="M695.9,297.9C613.6,139.7,385.4,186,385.4,394.7s310.5,359.1,310.5,359.1s310.5-150.4,310.5-359.1
							C1006.4,186,778.1,139.7,695.9,297.9z"/>
					</g>
				</g>
				<g opacity="0.48">
					<path fill="#ABADB0" d="M343.6,877.3c-1.4-0.1-6.5-0.2-14.2-0.3c-1.8-40-3.7-84.9-4.8-120.5c-0.1-3.7-0.2-7.2-0.3-10.7
						c0-1.7-0.1-3.4-0.1-5.1c0-0.8,0-1.7-0.1-2.5c0-1.6-0.1-3.2-0.1-4.8c-0.5-21.2-0.5-36.3,0.3-40.5c3.7-19.8,26-63.1,27.2-120
						c0-1.1,0-2.2,0.1-3.4c0-0.3,0-0.6,0-0.8c0-0.9,0-1.7,0.1-2.6c0-0.3,0-0.7,0-1c0-1.1,0-2.3,0.1-3.5c0-0.1,0-0.1,0-0.2
						c0-1.2,0-2.4,0.1-3.6c0-0.2,0-0.5,0-0.7c0-1.2,0-2.4,0.1-3.6c0-0.1,0-0.1,0-0.2c0-2.7,0.1-5.6,0.1-8.4c0,0,0,0,0-0.1
						c1-58.2,1.6-137.5-0.5-157.5c-1.5-14.1-10.1-25.5-17.3-26.3c0,0,0,0,0,0c-0.2,0-0.4,0-0.6,0c0,0,0,0,0,0c-0.2,0-0.4,0-0.5,0
						c0,0,0,0-0.1,0c-0.2,0-0.3,0-0.5,0.1c0,0,0,0-0.1,0c-0.2,0-0.3,0.1-0.5,0.1c0,0-0.1,0-0.1,0c-0.2,0-0.3,0.1-0.5,0.1
						c0,0-0.1,0-0.1,0c-0.2,0.1-0.3,0.1-0.5,0.2c0,0,0,0-0.1,0c-0.2,0.1-0.3,0.2-0.5,0.3c0,0,0,0,0,0c-0.7,0.4-1.4,1-2,1.7
						c0,0-0.1,0.1-0.1,0.1c-0.1,0.1-0.2,0.3-0.4,0.4c0,0.1-0.1,0.1-0.1,0.2c-0.1,0.1-0.2,0.3-0.3,0.4c0,0.1-0.1,0.2-0.1,0.2
						c-0.1,0.1-0.2,0.3-0.3,0.4c-0.1,0.1-0.1,0.2-0.2,0.3c-0.1,0.1-0.2,0.3-0.2,0.4c-0.1,0.1-0.1,0.2-0.2,0.3
						c-0.1,0.2-0.1,0.3-0.2,0.5c0,0.1-0.1,0.2-0.1,0.4c-0.1,0.2-0.1,0.3-0.2,0.5c0,0.1-0.1,0.3-0.1,0.4c-0.1,0.2-0.1,0.4-0.2,0.5
						c0,0.1-0.1,0.3-0.1,0.4c-0.1,0.2-0.1,0.4-0.2,0.6c0,0.1-0.1,0.3-0.1,0.5c0,0.2-0.1,0.4-0.1,0.6c0,0.2-0.1,0.3-0.1,0.5
						c0,0.2-0.1,0.4-0.1,0.7c0,0.2-0.1,0.3-0.1,0.5c0,0.2-0.1,0.5-0.1,0.7c0,0.2-0.1,0.3-0.1,0.5c0,0.3-0.1,0.6-0.1,0.9
						c0,0.1,0,0.3-0.1,0.4c-0.1,0.4-0.1,0.9-0.1,1.3c-2.5,28.4-12.4,116.3-12.4,116.3s-6.2-132.3-8.7-149.7
						c-0.1-0.6-0.2-1.1-0.3-1.7c0,0,0-0.1,0-0.1c-0.1-0.5-0.3-1.1-0.4-1.6c0,0,0-0.1,0-0.1c-0.2-0.5-0.3-1-0.5-1.5
						c0-0.1,0-0.1-0.1-0.2c-0.2-0.5-0.4-1-0.7-1.5c0,0,0-0.1-0.1-0.1c-0.2-0.5-0.5-1-0.8-1.4c0,0,0-0.1-0.1-0.1
						c-0.3-0.5-0.6-1-0.9-1.4c0,0,0-0.1-0.1-0.1c-0.3-0.5-0.7-1-1-1.4c0,0,0,0,0,0c-8.4-11.1-24.4-15.6-27.3,6.3
						c-3.7,28.4-17.3,143.5-17.3,143.5s-0.9-24.7-2.5-55.1c-0.1-2.3-0.2-4.5-0.4-6.9c-0.2-3.5-0.4-7-0.6-10.6
						c-0.1-2.4-0.3-4.8-0.4-7.1c-0.1-1.2-0.1-2.4-0.2-3.6c-2.1-34.7-5-69.7-8.3-81.7c-0.2-0.8-0.5-1.6-0.7-2.3
						c-0.1-0.3-0.2-0.5-0.3-0.7c-0.2-0.5-0.4-1-0.6-1.4c-0.1-0.3-0.3-0.6-0.4-0.8c-0.2-0.4-0.4-0.8-0.6-1.2
						c-0.2-0.3-0.3-0.6-0.5-0.8c-0.2-0.3-0.4-0.7-0.6-1c-0.2-0.3-0.4-0.5-0.6-0.8c-0.2-0.3-0.4-0.6-0.6-0.8
						c-0.2-0.3-0.4-0.5-0.6-0.8c-0.2-0.2-0.4-0.5-0.6-0.7c-0.2-0.2-0.5-0.5-0.7-0.7c-0.2-0.2-0.4-0.4-0.6-0.6
						c-0.3-0.2-0.5-0.4-0.8-0.7c-0.2-0.2-0.4-0.3-0.6-0.5c-0.3-0.2-0.6-0.4-0.9-0.6c-0.2-0.1-0.4-0.3-0.6-0.4
						c-0.3-0.2-0.6-0.4-0.9-0.5c-0.2-0.1-0.4-0.2-0.5-0.3c-0.3-0.2-0.7-0.3-1-0.5c-0.2-0.1-0.3-0.1-0.5-0.2
						c-0.4-0.1-0.7-0.3-1.1-0.4c-0.1,0-0.3-0.1-0.4-0.1c-0.4-0.1-0.8-0.2-1.2-0.3c-0.1,0-0.2,0-0.4-0.1c-0.4-0.1-0.8-0.1-1.3-0.2
						c-0.1,0-0.2,0-0.3,0c-0.5,0-0.9-0.1-1.4-0.1c-0.1,0-0.1,0-0.2,0c-0.5,0-1,0-1.5,0.1c0,0,0,0,0,0c0,0,0,0,0,0
						c-9.5,0.8-18.6,9.1-19.9,24.1c-2.5,28.4,0,170.7,0,170.7s-0.1-1-0.3-2.9c0-0.5-0.1-1-0.1-1.6c-0.1-0.9-0.2-1.9-0.3-2.9
						c-0.1-0.7-0.1-1.5-0.2-2.3c0-0.4-0.1-0.8-0.1-1.3c-0.3-3-0.7-6.6-1.1-10.6c-0.1-1.1-0.2-2.3-0.4-3.5c-0.6-6-1.4-12.9-2.3-20.2
						c-0.2-1.5-0.4-3-0.5-4.5c-2.1-17.3-4.8-36.9-7.9-54.8c-0.5-3.1-1.1-6.2-1.7-9.2c-0.5-2.9-1.1-5.8-1.7-8.7
						c-0.2-1-0.4-1.9-0.6-2.9c-0.2-1-0.4-1.9-0.6-2.9c-5.7-25.4-14.2-47.8-31.9-41.5c-0.3,0.1-0.7,0.2-1,0.4
						c-27.2,11.1-3.7,126.2,0,158.3c3.7,32.2,8.7,80.4,8.7,80.4c-50.7-28.4-58.1-90.3-91.5-77.9c-26.3,9.8,5,78.7,32.8,120.1
						c0.1,0.2,0.2,0.3,0.3,0.5c0.3,0.5,0.7,1,1,1.5c0.1,0.2,0.3,0.4,0.4,0.6c0.3,0.5,0.7,1,1,1.4c0,0,0,0.1,0.1,0.1
						c0.7,1,1.3,1.9,2,2.8c0.2,0.3,0.4,0.6,0.7,0.9c0.2,0.3,0.5,0.7,0.7,1c0.2,0.3,0.5,0.7,0.7,1c0.2,0.3,0.5,0.6,0.7,0.9
						c0.3,0.4,0.6,0.8,0.9,1.1c0.2,0.2,0.4,0.5,0.5,0.7c0.4,0.6,0.9,1.2,1.3,1.7c0.2,0.2,0.3,0.4,0.5,0.6c0.3,0.4,0.6,0.8,0.9,1.2
						c0.2,0.2,0.3,0.4,0.5,0.6c0.3,0.4,0.6,0.7,0.9,1.1c0.2,0.2,0.3,0.4,0.5,0.6c0.4,0.4,0.7,0.9,1.1,1.3c0.1,0.1,0.2,0.2,0.2,0.3
						c0.4,0.5,0.9,1,1.3,1.5c0.1,0.1,0.2,0.3,0.4,0.4c0.3,0.3,0.6,0.7,0.9,1c0.1,0.2,0.3,0.3,0.4,0.5c0.3,0.3,0.6,0.6,0.9,0.9
						c0.1,0.1,0.3,0.3,0.4,0.4c0.4,0.4,0.8,0.8,1.2,1.2c6,5.7,12.1,11.6,18.1,17.8c2.5,2.6,4.9,5.2,7.3,7.9c0.2,0.2,0.4,0.4,0.6,0.7
						c10.9,12.3,20.5,26.1,26.5,42c4,10.6,6.4,22.2,6.4,35c0,23.9,0,86.8,0,142.7c-7.6,0-12.1,0.1-12.1,0.1c-8.2,0-19,67.6-4.1,69.3
						c1.2,0.1,3.3,0.2,6.3,0.3v58.2H345l-4.7-61.3c7.8-0.6,12.4-1.3,12.4-2.2C352.7,936.7,352.7,878.1,343.6,877.3z"/>
				</g>
				<g>
					<g>
						<g>
							<g>
								<path fill="#FBC19E" d="M174.5,960.2c0,0,0-192,0-237.9c0-45.9-31-75.7-57.6-101.1s-84.6-130.6-52-142.7
									s39.9,48.4,89.5,76.2c0,0-4.8-47.2-8.5-78.6c-3.6-31.4-26.6-143.9,0-154.8c21.3-8.7,29.3,24.1,35.1,54.4
									c8.8,46.9,14.5,111.2,14.5,111.2s-2.4-139,0-166.8c2.4-27.8,32.6-32.4,39.9-6.5c7.3,25.9,12.1,161.3,12.1,161.3
									s13.3-112.4,16.9-140.2s29-12.1,31.4,4.8s8.5,146.3,8.5,146.3s9.7-85.8,12.1-113.7s24.2-12.1,26.6,10.9
									c2.4,23,1.2,125.7,0,181.4s-23,97.9-26.6,117.3c-3.6,19.3,9.7,278.5,9.7,278.5H174.5z"/>
							</g>
						</g>
						<g>
							<g>
								<path fill="#F8AB7F" d="M176.1,534.6c0,0,76.6,4.8,104,89.5C280.1,624,251.9,556.3,176.1,534.6z"/>
							</g>
						</g>
						<g>
							<g>
								<path fill="#F8AB7F" d="M223.7,496.7c0,0,31.4,45.9,85.4,48.4C309.1,545.1,254.1,529,223.7,496.7z"/>
							</g>
						</g>
						<g>
							<g>
								<path fill="#F8AB7F" d="M176.1,534.6c0,0,78.2,16.9,120.1,21C296.2,555.5,252.7,561.2,176.1,534.6z"/>
							</g>
						</g>
						<g>
							<g>
								<path fill="#F8AB7F" d="M98.7,507.2c17.7,27.4,55.6,47.6,55.6,47.6c-49.6-27.8-56.8-88.3-89.5-76.2
									C64.9,478.6,81,479.8,98.7,507.2z"/>
							</g>
						</g>
						<g>
							<g>
								<path fill="#F8AB7F" d="M172.5,353.4c6.6,33.9,23,133.6,23,133.6s-5.7-64.4-14.5-111.2c-5.7-30.3-13.8-63.1-35.1-54.4
									C145.9,321.4,165.8,319.6,172.5,353.4z"/>
							</g>
						</g>
						<g>
							<g>
								<path fill="#F8AB7F" d="M230.5,317.8c4,20.6,16.9,157.2,16.9,157.2s-4.8-135.4-12.1-161.3c-3.4-12.3-12.1-17.7-20.4-17
									C217.3,297,227,299.8,230.5,317.8z"/>
							</g>
						</g>
						<g>
							<g>
								<path fill="#F8AB7F" d="M293,361.7c1.6,19.7,11.3,124.1,11.3,124.1s-6-129.4-8.5-146.3c-1.3-8.9-8.9-17.5-16.4-19.6
									C288,325.1,291.4,341.9,293,361.7z"/>
							</g>
						</g>
						<g>
							<g>
								<path fill="#F8AB7F" d="M330.9,359.3c-6.4-4.4-13.2-2-14.5,12.8c-2.4,27.8-12.1,113.7-12.1,113.7s14.2-102.5,15.7-113.3
									C321.5,361.6,325.2,358,330.9,359.3z"/>
							</g>
						</g>
						<g>
							<g>
								<path fill="#F8AB7F" d="M192.7,960.2c-1.2-56.1-4.7-227.4-6.1-248.3c-1.6-25-4.8-51.6-60.5-97.5
									c-54.5-45-70.3-114.7-70.9-117.5c0,34.4,40.6,104.3,61.6,124.4c26.6,25.4,57.6,55.2,57.6,101.1s0,237.9,0,237.9H192.7z"/>
							</g>
						</g>
						<g>
							<g>
								<path fill="#F8AB7F" d="M343,564.4c0.4-18.8,0.8-42.9,1.1-67.6h0c0,0-2.7,91.5-19.6,131.5s-21,68.2-20.2,90.8
									c0.7,19.2,7.2,189.8,9.1,241H326c0,0-13.3-259.1-9.7-278.5C320,662.3,341.7,620,343,564.4z"/>
							</g>
						</g>
						<g>
							<g>
								<path fill="#F8AB7F" d="M145.9,429c0,0,10.9-12.1,35.1-4.8C180.9,424.2,163.4,423.5,145.9,429z"/>
							</g>
						</g>
						<g>
							<g>
								<path fill="#F8AB7F" d="M201,420.8c0,0,11.4-11.6,35.2-3.4C236.2,417.5,218.7,416.1,201,420.8z"/>
							</g>
						</g>
						<g>
							<g>
								<path fill="#F8AB7F" d="M197.3,366.2c0,0,11.4-11.6,35.2-3.4C232.5,362.9,215,361.5,197.3,366.2z"/>
							</g>
						</g>
						<g>
							<g>
								<path fill="#F8AB7F" d="M201,478.1c0,0,13-11.6,40.4-3.1C241.4,474.9,221.3,473.5,201,478.1z"/>
							</g>
						</g>
						<g>
							<g>
								<path fill="#F8AB7F" d="M255.6,472.1c0,0,14.5-9.6,40.5,2.6C296.1,474.7,276.4,470.4,255.6,472.1z"/>
							</g>
						</g>
						<g>
							<g>
								<path fill="#F8AB7F" d="M259.1,418.2c0,0,12.2-10,33.1,1.2C292.3,419.4,276.3,415.8,259.1,418.2z"/>
							</g>
						</g>
						<g>
							<g>
								<path fill="#F8AB7F" d="M122,597c0,0-0.2-18,25-35.4C147,561.6,132.3,577.3,122,597z"/>
							</g>
						</g>
						<g>
							<g>
								<path fill="#F8AB7F" d="M96.6,574c0,0,0.7-17.7,26.1-28.6C122.7,545.3,107.5,557.1,96.6,574z"/>
							</g>
						</g>
						<g>
							<g>
								<path fill="#F8AB7F" d="M76.2,543.3c0,0,2.4-17.6,28.7-26C105,517.2,88.7,527.5,76.2,543.3z"/>
							</g>
						</g>
						<g>
							<g>
								<path fill="#F8AB7F" d="M314.3,432.4c0,0,10.9-10.1,28.1,1C342.4,433.4,329,430,314.3,432.4z"/>
							</g>
						</g>
						<g>
							<g>
								<path fill="#F8AB7F" d="M316.8,399.4c0,0,9.5-10.3,23.6,0.1C340.5,399.5,329.3,396.5,316.8,399.4z"/>
							</g>
						</g>
						<g>
							<g>
								<path fill="#F8AB7F" d="M262.8,367.7c0,0,12.2-10,33.1,1.2C295.9,368.9,279.9,365.3,262.8,367.7z"/>
							</g>
						</g>
						<g>
							<g>
								<path fill="#F8AB7F" d="M136.8,381.7c0,0,10.9-12.1,35.1-4.8C171.9,376.9,154.3,376.3,136.8,381.7z"/>
							</g>
						</g>
						<g>
							<g>
								<path fill="#F8AB7F" d="M154.3,484.1c0,0,10.9-12.1,35.1-4.8C189.4,479.3,171.9,478.7,154.3,484.1z"/>
							</g>
						</g>
					</g>
					<g>
						<g>
							<polygon fill="#008EC3" points="164.8,908.6 164.8,986.8 336.5,986.8 330.1,902.9 							"/>
						</g>
					</g>
					<g>
						<g>
							<path fill="#00AEEF" d="M162.7,861.8c0,0,163.6-0.8,172.5,0c8.9,0.8,8.9,58,8.9,62.9s-170.9,6.4-185.4,4.8
								C144.1,927.9,154.6,861.9,162.7,861.8z"/>
						</g>
					</g>
					<g>
						<g>
							<g>
								<circle fill="#FFFFFF" cx="182.2" cy="895.8" r="14.4"/>
							</g>
						</g>
						<g>
							<g>
								<circle fill="#E2E3E4" cx="182.2" cy="895.8" r="11.6"/>
							</g>
						</g>
						<g>
							<g>
								<circle fill="#ABADB0" cx="182.2" cy="890.4" r="2.2"/>
							</g>
						</g>
						<g>
							<g>
								<circle fill="#ABADB0" cx="187.6" cy="895.8" r="2.2"/>
							</g>
						</g>
						<g>
							<g>
								<circle fill="#ABADB0" cx="182.2" cy="901.2" r="2.2"/>
							</g>
						</g>
						<g>
							<g>
								<circle fill="#ABADB0" cx="176.7" cy="895.8" r="2.2"/>
							</g>
						</g>
					</g>
				</g>
				<g>
					<g>
						<path fill="#9FDDF9" d="M564.3,953.3c-29.2,0-53-3.9-70.6-11.5c-24.8-10.7-37.9-29.3-37.9-53.7V734.4
							c0-40.7-55.1-44.1-111.5-44.1c-28,0-51.5,4.1-68.1,12c-17.7,8.4-26.4,20.2-26.4,36.2V787h-17v-48.6
							c0-22.5,12.5-40.4,36.1-51.5c18.8-8.9,44.9-13.6,75.4-13.6c48.1,0,128.5,0,128.5,61.1v153.8c0,17.6,9,30,27.6,38.1
							c15.5,6.7,37,10.1,63.9,10.1c33.9,0,73.6-13.6,73.6-52.1V651.6h17v232.6c0,21.6-9.5,39.5-27.4,52
							C611.3,947.4,589.5,953.3,564.3,953.3z"/>
					</g>
				</g>
				<g opacity="0.48">
					<path fill="#ABADB0" d="M1312.8,385.9c-0.1-0.2-0.2-0.3-0.3-0.5c-0.4-0.5-0.7-1-1.1-1.5c-0.1-0.2-0.3-0.4-0.4-0.6
						c-1.1-1.5-2.1-2.9-3.1-4.3c-0.2-0.3-0.5-0.6-0.7-0.9c-0.3-0.3-0.5-0.7-0.8-1c-0.3-0.3-0.5-0.7-0.7-1c-0.2-0.3-0.5-0.6-0.7-0.9
						c-0.3-0.4-0.6-0.8-0.9-1.1c-0.2-0.2-0.4-0.5-0.6-0.7c-0.5-0.6-0.9-1.2-1.4-1.7c-0.2-0.2-0.3-0.4-0.5-0.6
						c-0.3-0.4-0.6-0.8-0.9-1.2c-0.2-0.2-0.4-0.4-0.5-0.6c-0.3-0.4-0.6-0.7-0.9-1.1c-0.2-0.2-0.3-0.4-0.5-0.6
						c-0.4-0.4-0.7-0.9-1.1-1.3c-0.1-0.1-0.2-0.2-0.2-0.3c-0.4-0.5-0.9-1-1.3-1.4c-0.1-0.1-0.3-0.3-0.4-0.4c-0.3-0.3-0.6-0.7-0.9-1
						c-0.1-0.2-0.3-0.3-0.4-0.5c-0.3-0.3-0.6-0.6-0.9-0.9c-0.1-0.1-0.3-0.3-0.4-0.4c-0.4-0.4-0.8-0.8-1.2-1.2
						c-3.5-3.2-7.1-6.5-10.6-9.9c-1.8-1.7-3.6-3.4-5.3-5.2c-1.8-1.7-3.5-3.5-5.3-5.3c-3.4-3.5-6.7-7.1-9.8-10.8
						c-0.3-0.3-0.5-0.6-0.8-0.9c-1.3-1.6-2.6-3.2-3.9-4.8c-1.2-1.6-2.5-3.2-3.7-4.9c-4.2-5.8-7.9-11.8-11.1-18.3
						c-0.6-1.3-1.2-2.6-1.8-3.9c-1-2.2-1.9-4.5-2.7-6.8c-3.5-9.8-5.5-20.5-5.5-32.1c0-23.8,0-86.4,0-142c7.8,0,12.4-0.1,12.4-0.1
						c8.5,0,19.5-67.3,4.2-68.9c-1.2-0.1-3.4-0.2-6.5-0.3v-57.9h-180.2l4.8,61c-8,0.6-12.7,1.3-12.7,2.1c0,4.9,0,63.2,9.3,64
						c1.4,0.1,6.7,0.2,14.6,0.3c0.3,5.9,0.6,11.9,0.8,18c0,1.1,0.1,2.1,0.1,3.2c0.8,18,1.6,36.5,2.3,54.2c0.2,4.2,0.3,8.3,0.5,12.4
						c0.1,3.1,0.2,6.1,0.3,9.1c0.1,4,0.3,7.9,0.4,11.7c0.1,1.9,0.1,3.8,0.2,5.7c0,0.9,0.1,1.9,0.1,2.8c0.1,1.8,0.1,3.7,0.2,5.5
						c0.1,3.6,0.2,7.1,0.3,10.5c0.1,2.5,0.1,5,0.2,7.4c0.1,4.8,0.2,9.3,0.3,13.4c0,2.8,0.1,5.4,0.1,7.8c0.1,11-0.1,18.6-0.6,21.4
						c-3.8,19.7-26.6,62.8-27.9,119.4c0,1.1,0,2.2-0.1,3.3c0,0.3,0,0.6,0,0.9c0,0.9,0,1.8-0.1,2.7c0,0.3,0,0.6,0,0.8
						c0,2.4-0.1,4.8-0.1,7.3c0,0.2,0,0.5,0,0.7c0,1.1,0,2.2-0.1,3.4c0,0.2,0,0.3,0,0.5c-1.1,58.4-1.9,144.2,0.4,165.1
						c1.5,14,10.3,25.4,17.7,26.1c0,0,0,0,0,0c0.2,0,0.4,0,0.6,0c0,0,0,0,0,0c0.2,0,0.4,0,0.5,0c0,0,0,0,0.1,0c0.2,0,0.3,0,0.5-0.1
						c0,0,0.1,0,0.1,0c0.2,0,0.3-0.1,0.5-0.1c0,0,0.1,0,0.1,0c0.2,0,0.3-0.1,0.5-0.1c0,0,0.1,0,0.1,0c0.2-0.1,0.3-0.1,0.5-0.2
						c0,0,0,0,0.1,0c0.2-0.1,0.3-0.2,0.5-0.3c0,0,0,0,0,0c0.7-0.4,1.4-1,2-1.7c0,0,0.1-0.1,0.1-0.1c0.1-0.1,0.2-0.3,0.4-0.4
						c0-0.1,0.1-0.1,0.1-0.2c0.1-0.1,0.2-0.3,0.3-0.4c0.1-0.1,0.1-0.2,0.1-0.2c0.1-0.1,0.2-0.3,0.3-0.4c0.1-0.1,0.1-0.2,0.2-0.3
						c0.1-0.1,0.2-0.3,0.2-0.4c0.1-0.1,0.1-0.2,0.2-0.3c0.1-0.2,0.1-0.3,0.2-0.5c0.1-0.1,0.1-0.2,0.1-0.4c0.1-0.2,0.1-0.3,0.2-0.5
						c0-0.1,0.1-0.3,0.1-0.4c0.1-0.2,0.1-0.3,0.2-0.5c0-0.1,0.1-0.3,0.1-0.4c0.1-0.2,0.1-0.4,0.2-0.6c0-0.1,0.1-0.3,0.1-0.4
						c0.1-0.2,0.1-0.4,0.1-0.6c0-0.2,0.1-0.3,0.1-0.5c0-0.2,0.1-0.4,0.1-0.7c0-0.2,0.1-0.3,0.1-0.5c0-0.2,0.1-0.5,0.1-0.7
						c0-0.2,0.1-0.3,0.1-0.5c0-0.3,0.1-0.6,0.1-0.8c0-0.1,0-0.3,0.1-0.4c0.1-0.4,0.1-0.9,0.1-1.3c2.5-28.3,12.7-115.7,12.7-115.7
						s6.3,131.7,8.9,148.9c0.1,0.6,0.2,1.1,0.3,1.7c0,0,0,0.1,0,0.1c0.1,0.5,0.3,1.1,0.4,1.6c0,0,0,0.1,0,0.1c0.2,0.5,0.4,1,0.6,1.5
						c0,0,0,0.1,0.1,0.1c0.2,0.5,0.4,1,0.7,1.5c0,0,0,0.1,0.1,0.1c0.2,0.5,0.5,1,0.8,1.4c0,0,0,0.1,0.1,0.1c0.3,0.5,0.6,1,0.9,1.4
						c0,0,0,0.1,0.1,0.1c0.3,0.5,0.7,1,1,1.4c0,0,0,0,0,0c8.6,11.1,25,15.5,28-6.3c3.8-28.3,17.8-142.8,17.8-142.8
						s0.7,17.8,1.8,41.8c0.1,2.1,0.2,4.2,0.3,6.4c0.1,2.2,0.2,4.4,0.3,6.6c0.1,2.2,0.2,4.5,0.4,6.8c0.4,8.1,0.9,16.4,1.5,24.8
						c2.1,33.3,5,66.2,8.3,77.7c0.2,0.8,0.5,1.6,0.8,2.3c0.1,0.3,0.2,0.5,0.3,0.7c0.2,0.5,0.4,1,0.6,1.4c0.1,0.3,0.3,0.5,0.4,0.8
						c0.2,0.4,0.4,0.8,0.6,1.2c0.2,0.3,0.3,0.6,0.5,0.8c0.2,0.3,0.4,0.7,0.6,1c0.2,0.3,0.4,0.5,0.6,0.8c0.2,0.3,0.4,0.6,0.6,0.8
						c0.2,0.3,0.4,0.5,0.7,0.8c0.2,0.2,0.4,0.5,0.6,0.7c0.2,0.2,0.5,0.5,0.7,0.7c0.2,0.2,0.4,0.4,0.6,0.6c0.3,0.2,0.5,0.4,0.8,0.7
						c0.2,0.2,0.4,0.3,0.6,0.5c0.3,0.2,0.6,0.4,0.9,0.6c0.2,0.1,0.4,0.3,0.6,0.4c0.3,0.2,0.6,0.4,1,0.5c0.2,0.1,0.4,0.2,0.6,0.3
						c0.3,0.2,0.7,0.3,1,0.5c0.2,0.1,0.3,0.1,0.5,0.2c0.4,0.1,0.7,0.3,1.1,0.4c0.1,0,0.3,0.1,0.4,0.1c0.4,0.1,0.8,0.2,1.2,0.3
						c0.1,0,0.3,0,0.4,0.1c0.4,0.1,0.9,0.1,1.3,0.2c0.1,0,0.2,0,0.3,0c0.5,0,0.9,0.1,1.4,0.1c0.1,0,0.1,0,0.2,0
						c10.2,0,20.5-8.4,22-24c2.5-28.3,0-169.8,0-169.8s0.1,1.3,0.3,3.7c0.1,0.5,0.1,1.1,0.2,1.7c0.2,2.2,0.5,5,0.8,8.3
						c0.1,0.9,0.2,1.9,0.3,3c0.3,2.6,0.6,5.4,0.9,8.4c0.1,1.2,0.3,2.4,0.4,3.7c0.3,2.5,0.6,5.2,0.9,7.9c0.5,4.1,1,8.5,1.6,12.9
						c0.1,0.7,0.2,1.5,0.3,2.3c0.2,1.5,0.4,3,0.6,4.6c0.5,3.9,1,7.8,1.6,11.8c0.3,2.4,0.7,4.8,1,7.2c0.1,0.8,0.2,1.6,0.4,2.4
						c0.7,4.8,1.5,9.7,2.2,14.5c0.4,2.4,0.8,4.8,1.2,7.1c0.3,1.6,0.5,3.1,0.8,4.7c0.6,3.1,1.1,6.2,1.7,9.1c0.4,1.9,0.8,3.9,1.2,5.8
						c0.2,1,0.4,1.9,0.6,2.9c0.1,0.5,0.2,1,0.3,1.4c0.2,1,0.4,1.9,0.6,2.9c0.2,1,0.4,1.9,0.7,2.9c5.5,23.3,13.6,43.5,29.4,40.7
						c1.3-0.2,2.6-0.6,4-1.2c27.9-11.1,3.8-125.5,0-157.5c-3.8-32-8.9-80-8.9-80c52,28.3,59.6,89.8,93.9,77.5
						C1373.4,495.7,1341.3,427.2,1312.8,385.9z"/>
				</g>
				<g>
					<g>
						<g>
							<g>
								<path fill="#FBC19E" d="M1225.5,19.2c0,0,0,192,0,237.9s31,75.7,57.6,101.1c26.6,25.4,84.6,130.6,52,142.7
									c-32.6,12.1-39.9-48.4-89.5-76.2c0,0,4.8,47.2,8.5,78.6c3.6,31.4,26.6,143.9,0,154.8c-21.3,8.7-29.3-24.1-35.1-54.4
									c-8.8-46.9-14.5-111.2-14.5-111.2s2.4,139,0,166.8s-32.6,32.4-39.9,6.5c-7.3-25.9-12.1-161.3-12.1-161.3
									s-13.3,112.4-16.9,140.2s-29,12.1-31.4-4.8c-2.4-16.9-8.5-146.3-8.5-146.3s-9.7,85.8-12.1,113.6s-24.2,12.1-26.6-10.9
									s-1.2-125.7,0-181.4c1.2-55.6,23-97.9,26.6-117.3c3.6-19.3-9.7-278.5-9.7-278.5H1225.5z"/>
							</g>
						</g>
						<g>
							<g>
								<path fill="#F8AB7F" d="M1223.9,444.8c0,0-76.6-4.8-104-89.5C1119.9,355.3,1148.1,423,1223.9,444.8z"/>
							</g>
						</g>
						<g>
							<g>
								<path fill="#F8AB7F" d="M1176.3,482.7c0,0-31.4-45.9-85.4-48.4C1090.9,434.3,1145.9,450.4,1176.3,482.7z"/>
							</g>
						</g>
						<g>
							<g>
								<path fill="#F8AB7F" d="M1223.9,444.8c0,0-78.2-16.9-120.1-21C1103.8,423.8,1147.3,418.2,1223.9,444.8z"/>
							</g>
						</g>
						<g>
							<g>
								<path fill="#F8AB7F" d="M1301.3,472.2c-17.7-27.4-55.6-47.6-55.6-47.6c49.6,27.8,56.8,88.3,89.5,76.2
									C1335.1,500.8,1319,499.6,1301.3,472.2z"/>
							</g>
						</g>
						<g>
							<g>
								<path fill="#F8AB7F" d="M1227.5,626c-6.6-33.9-23-133.6-23-133.6s5.7,64.4,14.5,111.2c5.7,30.3,13.8,63.1,35.1,54.4
									C1254.1,658,1234.2,659.8,1227.5,626z"/>
							</g>
						</g>
						<g>
							<g>
								<path fill="#F8AB7F" d="M1169.5,661.6c-4-20.6-16.9-157.2-16.9-157.2s4.8,135.4,12.1,161.3c3.4,12.3,12.1,17.7,20.4,17
									C1182.7,682.3,1173,679.6,1169.5,661.6z"/>
							</g>
						</g>
						<g>
							<g>
								<path fill="#F8AB7F" d="M1107,617.7c-1.6-19.7-11.3-124.1-11.3-124.1s6,129.4,8.5,146.3c1.3,8.9,8.9,17.5,16.4,19.6
									C1112,654.3,1108.6,637.4,1107,617.7z"/>
							</g>
						</g>
						<g>
							<g>
								<path fill="#F8AB7F" d="M1069.1,620.1c6.4,4.4,13.2,2,14.5-12.8c2.4-27.8,12.1-113.6,12.1-113.6S1081.5,596,1080,606.9
									C1078.5,617.8,1074.8,621.4,1069.1,620.1z"/>
							</g>
						</g>
						<g>
							<g>
								<path fill="#F8AB7F" d="M1207.3,19.2c1.2,56.1,4.7,227.4,6.1,248.3c1.6,25,4.8,51.6,60.5,97.5
									c54.5,45,70.3,114.7,70.9,117.5c0-34.4-40.6-104.3-61.6-124.4c-26.6-25.4-57.6-55.2-57.6-101.1s0-237.9,0-237.9H1207.3z"/>
							</g>
						</g>
						<g>
							<g>
								<path fill="#F8AB7F" d="M1057,415c-0.4,18.8-0.8,42.9-1.1,67.6h0c0,0,2.7-91.5,19.6-131.5s21-68.2,20.2-90.8
									c-0.7-19.2-7.2-189.8-9.1-241H1074c0,0,13.3,259.1,9.7,278.5C1080,317,1058.3,359.4,1057,415z"/>
							</g>
						</g>
						<g>
							<g>
								<path fill="#F8AB7F" d="M1254.1,550.4c0,0-10.9,12.1-35.1,4.8C1219.1,555.2,1236.6,555.8,1254.1,550.4z"/>
							</g>
						</g>
						<g>
							<g>
								<path fill="#F8AB7F" d="M1199,558.5c0,0-11.4,11.6-35.2,3.4C1163.8,561.9,1181.3,563.2,1199,558.5z"/>
							</g>
						</g>
						<g>
							<g>
								<path fill="#F8AB7F" d="M1202.7,613.1c0,0-11.4,11.6-35.2,3.4C1167.5,616.5,1185,617.8,1202.7,613.1z"/>
							</g>
						</g>
						<g>
							<g>
								<path fill="#F8AB7F" d="M1199,501.3c0,0-13,11.6-40.4,3.1C1158.6,504.4,1178.7,505.9,1199,501.3z"/>
							</g>
						</g>
						<g>
							<g>
								<path fill="#F8AB7F" d="M1144.4,507.3c0,0-14.5,9.6-40.5-2.6C1103.9,504.7,1123.6,509,1144.4,507.3z"/>
							</g>
						</g>
						<g>
							<g>
								<path fill="#F8AB7F" d="M1140.9,561.2c0,0-12.2,10-33.1-1.2C1107.7,560,1123.7,563.6,1140.9,561.2z"/>
							</g>
						</g>
						<g>
							<g>
								<path fill="#F8AB7F" d="M1278,382.4c0,0,0.2,18-25,35.4C1253,417.8,1267.7,402.1,1278,382.4z"/>
							</g>
						</g>
						<g>
							<g>
								<path fill="#F8AB7F" d="M1303.4,405.4c0,0-0.7,17.7-26.1,28.6C1277.3,434.1,1292.5,422.3,1303.4,405.4z"/>
							</g>
						</g>
						<g>
							<g>
								<path fill="#F8AB7F" d="M1323.8,436.1c0,0-2.4,17.6-28.7,26C1295,462.1,1311.3,451.8,1323.8,436.1z"/>
							</g>
						</g>
						<g>
							<g>
								<path fill="#F8AB7F" d="M1085.7,546.9c0,0-10.9,10.1-28.1-1C1057.6,546,1071,549.4,1085.7,546.9z"/>
							</g>
						</g>
						<g>
							<g>
								<path fill="#F8AB7F" d="M1083.2,579.9c0,0-9.5,10.3-23.6-0.1C1059.5,579.9,1070.7,582.9,1083.2,579.9z"/>
							</g>
						</g>
						<g>
							<g>
								<path fill="#F8AB7F" d="M1137.2,611.7c0,0-12.2,10-33.1-1.2C1104.1,610.5,1120.1,614.1,1137.2,611.7z"/>
							</g>
						</g>
						<g>
							<g>
								<path fill="#F8AB7F" d="M1263.2,597.7c0,0-10.9,12.1-35.1,4.8C1228.1,602.5,1245.7,603.1,1263.2,597.7z"/>
							</g>
						</g>
						<g>
							<g>
								<path fill="#F8AB7F" d="M1245.7,495.2c0,0-10.9,12.1-35.1,4.8C1210.6,500.1,1228.1,500.7,1245.7,495.2z"/>
							</g>
						</g>
					</g>
					<g>
						<g>
							<polygon fill="#D3392F" points="1235.2,70.8 1235.2,-7.4 1063.5,-7.4 1069.9,76.4 							"/>
						</g>
					</g>
					<g>
						<g>
							<path fill="#EF4136" d="M1237.3,117.6c0,0-163.6,0.8-172.5,0c-8.9-0.8-8.9-58-8.9-62.9s170.9-6.4,185.4-4.8
								C1255.9,51.5,1245.4,117.5,1237.3,117.6z"/>
						</g>
					</g>
					<g>
						<g>
							<g>
								<circle fill="#FFFFFF" cx="1217.8" cy="83.6" r="14.4"/>
							</g>
						</g>
						<g>
							<g>
								<circle fill="#E2E3E4" cx="1217.8" cy="83.6" r="11.6"/>
							</g>
						</g>
						<g>
							<g>
								<circle fill="#ABADB0" cx="1217.8" cy="89" r="2.2"/>
							</g>
						</g>
						<g>
							<g>
								<circle fill="#ABADB0" cx="1212.4" cy="83.6" r="2.2"/>
							</g>
						</g>
						<g>
							<g>
								<circle fill="#ABADB0" cx="1217.8" cy="78.2" r="2.2"/>
							</g>
						</g>
						<g>
							<g>
								<circle fill="#ABADB0" cx="1223.3" cy="83.6" r="2.2"/>
							</g>
						</g>
					</g>
				</g>
				<g>
					<g>
						<path fill="#9FDDF9" d="M816.3,820.6c-23.5,0-42.2-4.5-55.6-13.3c-15.2-10-23.2-25.7-23.2-45.4V654.4h16v107.5
							c0,28.3,21.1,42.7,62.8,42.7c18.5,0,43.9,0,62.9-8.4c20.3-8.9,29.7-25.6,29.7-52.5V390.4c0-35.2,6.4-59.2,20.2-75.6
							c14.4-17.1,36.9-25.4,68.8-25.4h121.7c24.8,0,30-25.5,30-46.9v-40.5h16v40.5c0,40-16.8,62.9-46,62.9H997.9
							c-27.3,0-45.3,6.3-56.6,19.7c-11,13.1-16.4,34.5-16.4,65.2v353.3c0,33.1-13.2,55.6-39.3,67.1
							C863.5,820.6,836.2,820.6,816.3,820.6z"/>
					</g>
				</g>
				<g>
					<g>
						<g>
							<path fill="#9FDDF9" d="M646.4,641.7h-21.7c0,0,0,12,0,22.4c0,10.4,5,13.9,9.3,13.9c4.3,0,12.4,0,12.4,0s8.1,0,12.4,0
								c4.3,0,9.3-3.5,9.3-13.9c0-10.4,0-22.4,0-22.4H646.4z"/>
						</g>
					</g>
					<g>
						<g>
							<path fill="#9FDDF9" d="M745.4,641.7h-21.7c0,0,0,12,0,22.4c0,10.4,5,13.9,9.3,13.9c4.3,0,12.4,0,12.4,0s8.1,0,12.4,0
								c4.3,0,9.3-3.5,9.3-13.9c0-10.4,0-22.4,0-22.4H745.4z"/>
						</g>
					</g>
					<g>
						<g>
							<g>
								<path fill="#9FDDF9" d="M799.4,346.4c-6.6-2.6-64-14.3-103.5-14.3c-39.5,0-96.9,11.8-103.5,14.3
									c-6.6,2.6-17.9,6.4-17.9,37.4s0,212.7,0,230.5c0,17.8,28.7,40.2,121.4,40.2s121.4-22.4,121.4-40.2c0-17.8,0-199.5,0-230.5
									S805.9,348.9,799.4,346.4z"/>
							</g>
						</g>
						<g>
							<g>
								<path fill="#8FC6DF" d="M811.9,503.8c0-24.4-1.6-72.4-14.9-104.6c-13.3-32.1-52.3-44.7-99.1-44.8v0c-0.1,0-0.3,0-0.4,0
									c-0.1,0-0.3,0-0.4,0v0c-46.8,0.1-85.8,12.8-99.1,44.8c-13.4,32.3-14.9,80.2-14.9,104.6h0.4c0,24.4,1.6,72.4,14.9,104.6
									c13.3,32.1,52.3,44.7,99.1,44.8v0c0.1,0,0.3,0,0.4,0c0.1,0,0.3,0,0.4,0v0c46.8-0.1,85.8-12.8,99.1-44.8
									c13.4-32.3,14.9-80.2,14.9-104.6H811.9z"/>
							</g>
						</g>
						<g>
							<g>
								<path fill="#C9EBFC" d="M808,501.3c0-24-1.5-71.2-14.7-102.9c-13.1-31.5-51.4-43.9-97.4-44.1v0c-0.1,0-0.3,0-0.4,0
									c-0.1,0-0.3,0-0.4,0v0c-46.1,0.1-84.4,12.5-97.4,44.1c-13.1,31.7-14.7,78.9-14.7,102.9h0.4c0,24,1.5,71.2,14.7,102.9
									c13.1,31.5,51.4,43.9,97.4,44.1v0c0.1,0,0.3,0,0.4,0c0.1,0,0.3,0,0.4,0v0c46.1-0.1,84.4-12.5,97.4-44.1
									c13.1-31.7,14.7-78.9,14.7-102.9H808z"/>
							</g>
						</g>
						<g>
							<g>
								<path fill="#BE141B" d="M695.9,648.2c0.1,0,0.3,0,0.4,0v0c46.1-0.1,84.4-12.5,97.4-44.1c13.1-31.7,14.7-78.9,14.7-102.9H808
									c0-16.8-0.8-45-5.7-71.3H588.7c-5,26.3-5.7,54.5-5.7,71.3h0.4c0,24,1.5,71.2,14.7,102.9c13.1,31.5,51.4,43.9,97.4,44.1v0
									C695.6,648.2,695.8,648.2,695.9,648.2z"/>
							</g>
						</g>
						<g opacity="0.47">
							<g>
								<path fill="#FFFFFF" d="M615.3,582.5c-17-2.5-17.8-84-16.5-103.6c1.3-19.6,16.8-19.3,20.6,0.3
									C623.3,498.9,633.4,585.1,615.3,582.5z"/>
							</g>
						</g>
						<g opacity="0.47">
							<g>
								<path fill="#FFFFFF" d="M621.6,390.4c-13.2-0.8-25.6,57.7-9.6,58.8C628.1,450.2,639.4,391.5,621.6,390.4z"/>
							</g>
						</g>
					</g>
					<g>
						<g>
							<path fill="#9FDDF9" d="M661.6,681.8h-30.5c-0.9,0-1.6,0.7-1.6,1.6v2.7c0,0.9,0.7,1.6,1.6,1.6h3.8c0,5.8,0,14.4,0,17.9
								c0,5.4,3.5,7.5,11.4,7.5c7.9,0,11.4-2.1,11.4-7.5c0-3.5,0-12.1,0-17.9h3.8c0.9,0,1.6-0.7,1.6-1.6v-2.7
								C663.3,682.5,662.5,681.8,661.6,681.8z"/>
						</g>
					</g>
					<g>
						<g>
							<path fill="#BE141B" d="M646.4,630.4h-14.5c0,0,0,30.2,0,35.3c0,5.2,4.5,7,14.5,7c10,0,14.5-1.8,14.5-7c0-5.2,0-35.3,0-35.3
								H646.4z"/>
						</g>
					</g>
					<g>
						<g>
							<path fill="#9FDDF9" d="M760.6,681.8h-30.5c-0.9,0-1.6,0.7-1.6,1.6v2.7c0,0.9,0.7,1.6,1.6,1.6h3.8c0,5.8,0,14.4,0,17.9
								c0,5.4,3.5,7.5,11.4,7.5c7.9,0,11.4-2.1,11.4-7.5c0-3.5,0-12.1,0-17.9h3.8c0.9,0,1.6-0.7,1.6-1.6v-2.7
								C762.3,682.5,761.5,681.8,760.6,681.8z"/>
						</g>
					</g>
					<g>
						<g>
							<path fill="#BE141B" d="M745.4,630.4h-14.5c0,0,0,30.2,0,35.3c0,5.2,4.5,7,14.5,7c10,0,14.5-1.8,14.5-7c0-5.2,0-35.3,0-35.3
								H745.4z"/>
						</g>
					</g>
					<g>
						<g>
							<path fill="#9FDDF9" d="M697.3,297.5c-22.5,0-24.9,13.5-24.9,24.4s0,15.9,0,15.9h8.6c0,0,0-4,0-12.6s1.6-19.3,16.4-19.3
								c14.8,0,16.4,10.7,16.4,19.3s0,12.6,0,12.6h8.6c0,0,0-5,0-15.9S719.9,297.5,697.3,297.5z"/>
						</g>
					</g>
				</g>
				<g>
					<g>
						<path fill="#BE141B" d="M564.3,949.8c-86.8,0-105-33.5-105-61.7V734.4c0-43.9-56.8-47.6-115-47.6c-28.5,0-52.6,4.3-69.6,12.3
							c-18.8,8.9-28.4,22.1-28.4,39.3V787h-10v-48.6c0-21.1,11.8-37.8,34.1-48.4c18.4-8.7,43.9-13.3,73.9-13.3
							c28.3,0,58,0.6,81.6,7.5c28.8,8.4,43.3,25.3,43.3,50.1v153.8c0,42.7,51.7,51.7,95,51.7c46.8,0,77.1-21.8,77.1-55.6V651.6h10
							v232.6c0,20.4-9,37.4-25.9,49.1C609.9,944.1,588.8,949.8,564.3,949.8z"/>
					</g>
				</g>
				<g>
					<g>
						<circle fill="#F1F2F2" cx="241.4" cy="787" r="11.2"/>
					</g>
				</g>
				<g>
					<g>
						<path fill="#F1F2F2" d="M265.7,771.9H216c-2.8,0-5-2.3-5-5v-10c0-2.8,2.3-5,5-5h49.7c2.8,0,5,2.3,5,5v10
							C270.7,769.7,268.4,771.9,265.7,771.9z"/>
					</g>
				</g>
				<g>
					<g>
						<path fill="#DADBDC" d="M248.2,768.8h-14.6c-2.8,0-5-2.3-5-5v-3.7c0-2.8,2.3-5,5-5h14.6c2.8,0,5,2.3,5,5v3.7
							C253.2,766.5,250.9,768.8,248.2,768.8z"/>
					</g>
				</g>
				<g>
					<g>
						<g>
							<path fill="#F1F2F2" d="M265.7,746.9H216c-2.8,0-5-2.3-5-5v-10c0-2.8,2.3-5,5-5h49.7c2.8,0,5,2.3,5,5v10
								C270.7,744.7,268.4,746.9,265.7,746.9z"/>
						</g>
					</g>
					<g>
						<g>
							<path fill="#DADBDC" d="M248.2,743.8h-14.6c-2.8,0-5-2.3-5-5v-3.7c0-2.8,2.3-5,5-5h14.6c2.8,0,5,2.3,5,5v3.7
								C253.2,741.5,250.9,743.8,248.2,743.8z"/>
						</g>
					</g>
				</g>
				<g>
					<g>
						<path fill="#BE141B" d="M816.3,817.6c-48.9,0-75.8-19.8-75.8-55.7V654.4h10v107.5c0,37.7,35.8,45.7,65.8,45.7
							c50.4,0,95.6-4.9,95.6-63.8V390.4c0-68.6,25.7-97.9,86-97.9h121.7c27.3,0,33-27.1,33-49.9v-40.5h10v40.5
							c0,38.1-15.7,59.9-43,59.9H997.9c-54.7,0-76,24.7-76,87.9v353.3C921.9,817.6,855.8,817.6,816.3,817.6z"/>
					</g>
				</g>
				<g>
					<g>
						<circle fill="#F1F2F2" cx="1157.6" cy="202.1" r="11.2"/>
					</g>
				</g>
				<g>
					<g>
						<g>
							<path fill="#F1F2F2" d="M1183.4,240.5h-49.7c-2.8,0-5-2.3-5-5v-10c0-2.8,2.3-5,5-5h49.7c2.8,0,5,2.3,5,5v10
								C1188.4,238.3,1186.2,240.5,1183.4,240.5z"/>
						</g>
					</g>
					<g>
						<g>
							<path fill="#DADBDC" d="M1165.9,237.4h-14.6c-2.8,0-5-2.3-5-5v-3.7c0-2.8,2.3-5,5-5h14.6c2.8,0,5,2.3,5,5v3.7
								C1170.9,235.1,1168.7,237.4,1165.9,237.4z"/>
						</g>
					</g>
				</g>
				<g>
					<g>
						<g>
							<path fill="#F1F2F2" d="M1182.4,268.4h-49.7c-2.8,0-5-2.3-5-5v-10c0-2.8,2.3-5,5-5h49.7c2.8,0,5,2.3,5,5v10
								C1187.4,266.1,1185.2,268.4,1182.4,268.4z"/>
						</g>
					</g>
					<g>
						<g>
							<path fill="#DADBDC" d="M1164.9,265.2h-14.6c-2.8,0-5-2.3-5-5v-3.7c0-2.8,2.3-5,5-5h14.6c2.8,0,5,2.3,5,5v3.7
								C1169.9,263,1167.7,265.2,1164.9,265.2z"/>
						</g>
					</g>
				</g>
			</g>
			<g>
				<g>
					<path fill="#FFFFFF" d="M758.1,564.3h-121c-2.8,0-5-2.3-5-5v-76.8c0-2.8,2.3-5,5-5h121c2.8,0,5,2.3,5,5v76.8
						C763.1,562,760.9,564.3,758.1,564.3z"/>
				</g>
			</g>
			<g>
				<g>
					<rect x="663.3" y="490" fill="#E6E7E8" width="89.2" height="8.5"/>
				</g>
			</g>
			<g>
				<g>
					<rect x="663.3" y="507.3" fill="#E6E7E8" width="89.2" height="8.5"/>
				</g>
			</g>
			<g>
				<g>
					<rect x="639.8" y="524.7" fill="#E6E7E8" width="112.7" height="8.5"/>
				</g>
			</g>
			<g>
				<g>
					<rect x="639.8" y="542" fill="#E6E7E8" width="112.7" height="8.5"/>
				</g>
			</g>
		</g>
	</g>
	<g>
		<polygon fill="#FFFFFF" points="302.2,169.5 252.8,169.5 252.8,120 214.9,120 214.9,169.5 165.4,169.5 165.4,207.4 214.9,207.4 
			214.9,256.8 252.8,256.8 252.8,207.4 302.2,207.4 		"/>
	</g>
	<g>
		<rect x="1098.8" y="726.2" fill="#FFFFFF" width="136.8" height="37.9"/>
	</g>
	<g>
		<path fill="#FFFFFF" d="M437.6,835.1h-12v-63c0-0.8,0-1.7,0-2.6c0.1-9.7,0.2-27.7-6.6-34.6c-1.8-1.8-4-2.7-6.9-2.7h-33v-12h33
			c6.1,0,11.3,2.1,15.4,6.2c10.3,10.4,10.2,30.9,10.1,43.1c0,0.9,0,1.7,0,2.5V835.1z"/>
	</g>
	<g>
		<path fill="#FFFFFF" d="M550.1,913.1c-18.3,0-32.1-4.9-41-14.6c-11.2-12.2-10.1-27.3-10-27.9l12,1l-6-0.5l6,0.5
			c0,0.1-0.7,10.7,7,19c6.5,7,17.3,10.6,32,10.6c48,0,48-15.3,48-30v-36h12v36c0,10.4-1.3,22.1-11.1,30.4
			C589.7,909.4,574.2,913.1,550.1,913.1z"/>
	</g>
	<g>
		<rect x="799.1" y="762.2" fill="#FFFFFF" width="48" height="12"/>
	</g>
	<g>
		<rect x="949.1" y="629.6" fill="#FFFFFF" width="12" height="96.7"/>
	</g>
	<g>
		<polygon fill="#FFFFFF" points="449.4,819.7 431.6,850.4 413.9,819.7 		"/>
	</g>
	<g>
		<polygon fill="#FFFFFF" points="586.4,850.4 604.1,819.7 621.8,850.4 		"/>
	</g>
	<g>
		<polygon fill="#FFFFFF" points="839.9,750.4 870.6,768.2 839.9,785.9 		"/>
	</g>
	<g>
		<polygon fill="#FFFFFF" points="937.3,644.9 955.1,614.2 972.8,644.9 		"/>
	</g>
</g>
</svg>
